<!-- icon666.com - MILLIONS vector ICONS FREE -->
<svg
    id="Capa_1"
    enable-background="new 0 0 512 512"
    viewBox="0 0 512 512"
    xmlns="http://www.w3.org/2000/svg"
>
    <g>
        <g>
            <path
                d="m255.995 422.758c-17.925 0-31.923-4.612-39.998-7.956-19.405-8.077-35.844-21.854-47.234-39.236-13.52 27.931-42.123 47.192-75.237 47.192-46.13 0-83.526-37.395-83.526-83.536 0-45.061 35.7-81.793 80.353-83.461-6.528-11.199-10.289-24.217-10.289-38.116 0-41.858 33.937-75.796 75.796-75.796 16.495 0 31.749 5.287 44.189 14.231-.578-3.25-.9-6.585-.9-9.996 0-31.398 25.458-56.847 56.847-56.847 31.323 0 56.714 25.316 56.847 56.601 5.798-2.558 12.203-3.989 18.949-3.989 25.012 0 45.458 19.546 46.908 44.189 8.347-4.813 18.021-7.58 28.348-7.58 31.399 0 56.847 25.448 56.847 56.847 0 10.677-2.946 20.663-8.063 29.191 27.371 13.72 46.168 42.029 46.168 74.726 0 46.141-37.396 83.536-83.536 83.536-33.104 0-61.707-19.262-75.227-47.192-11.389 17.382-27.827 31.158-47.234 39.235-8.076 3.345-22.077 7.958-40.008 7.957z"
                fill="#99ebfa"
                style="fill: rgb(35, 94, 190);"
            ></path>
        </g>
        <g>
            <g>
                <path
                    d="m358.123 324.758c-11.709 0-12.655-.315-13.98-.757-3.186-1.061-5.669-3.586-6.642-6.751-1.641-5.333.902-8.662 4.749-13.7 2.955-3.869 8.456-11.072 17.679-24.25 2.892-4.132 4.083-7.02 4.565-8.808l.113-.884c-.236-2.52-2.363-4.499-4.944-4.499-2.369 0-4.418 1.679-4.872 3.991-1.065 5.419-6.321 8.95-11.74 7.886-5.419-1.065-8.95-6.32-7.885-11.739 2.292-11.669 12.594-20.138 24.497-20.138 13.766 0 24.966 11.199 24.966 24.966 0 .424-.027.848-.081 1.268l-.289 2.262c-.043.334-.102.665-.178.992-1.185 5.107-3.726 10.397-7.767 16.172-3.952 5.645-7.242 10.228-9.955 13.94 3.472-.023 7.119-.059 10.622-.103.042-.001.086-.001.128-.001 5.465 0 9.928 4.395 9.997 9.874.069 5.522-4.351 10.056-9.874 10.125-8.418.106-14.572.154-19.109.154z"
                    fill="#000000"
                    style="fill: rgb(0, 0, 0);"
                ></path>
            </g>
            <g>
                <path
                    d="m174.647 314.248c-27.435 0-49.754-22.319-49.754-49.754s22.319-49.754 49.754-49.754c9.969 0 19.59 2.94 27.824 8.503 4.577 3.092 5.78 9.308 2.689 13.884-3.092 4.576-9.308 5.779-13.884 2.688-4.915-3.32-10.665-5.075-16.629-5.075-16.406 0-29.754 13.348-29.754 29.754s13.348 29.754 29.754 29.754c6.07 0 11.173-1.804 15.167-5.361.78-.694 1.524-1.463 2.213-2.285 3.547-4.232 9.854-4.79 14.087-1.24 4.233 3.548 4.789 9.854 1.241 14.088-1.312 1.565-2.739 3.037-4.242 4.374-7.656 6.819-17.5 10.424-28.466 10.424z"
                    fill="#000000"
                    style="fill: rgb(0, 0, 0);"
                ></path>
            </g>
            <g>
                <path
                    d="m269.445 314.248c-27.435 0-49.754-22.319-49.754-49.754s22.319-49.754 49.754-49.754 49.754 22.319 49.754 49.754-22.319 49.754-49.754 49.754zm0-79.508c-16.406 0-29.754 13.348-29.754 29.754s13.348 29.754 29.754 29.754 29.754-13.348 29.754-29.754-13.347-29.754-29.754-29.754z"
                    fill="#000000"
                    style="fill: rgb(0, 0, 0);"
                ></path>
            </g>
            <g>
                <path
                    d="m418.463 432.758c-17.913 0-35.323-5.083-50.348-14.699-10.172-6.511-18.94-14.878-25.875-24.621-11.544 13.314-25.975 23.762-42.395 30.596-5.099 2.12-10.953-.291-13.075-5.39-2.122-5.1.291-10.953 5.39-13.075 17.507-7.286 32.277-19.557 42.712-35.483 1.974-3.012 5.413-4.726 9.01-4.499 3.594.233 6.786 2.381 8.355 5.623 12.218 25.239 38.213 41.549 66.226 41.549 40.548 0 73.537-32.988 73.537-73.536 0-28.011-15.576-53.218-40.65-65.784-2.488-1.248-4.345-3.476-5.122-6.15-.777-2.673-.405-5.549 1.027-7.936 4.342-7.237 6.638-15.553 6.638-24.047 0-25.831-21.015-46.847-46.847-46.847-8.195 0-16.27 2.159-23.352 6.243-3.004 1.732-6.691 1.784-9.741.139-3.052-1.645-5.034-4.754-5.237-8.215-1.147-19.501-17.367-34.776-36.925-34.776-5.175 0-10.193 1.056-14.913 3.138-3.085 1.36-6.649 1.075-9.478-.761-2.83-1.836-4.543-4.974-4.557-8.347-.109-25.718-21.125-46.642-46.847-46.642-25.831 0-46.847 21.016-46.847 46.847 0 2.688.251 5.462.746 8.245.712 4.007-1.075 8.046-4.52 10.214-3.444 2.168-7.858 2.032-11.164-.345-11.238-8.079-24.499-12.35-38.351-12.35-36.28 0-65.796 29.516-65.796 65.796 0 11.62 3.087 23.059 8.928 33.079 1.769 3.035 1.816 6.776.123 9.855-1.693 3.078-4.878 5.043-8.389 5.174-39.659 1.482-70.726 33.753-70.726 73.469 0 40.548 32.984 73.536 73.527 73.536 28.45 0 53.83-15.921 66.236-41.549 1.569-3.242 4.761-5.39 8.355-5.623 3.597-.229 7.036 1.486 9.01 4.499 10.437 15.928 25.206 28.198 42.712 35.484 5.099 2.122 7.512 7.977 5.39 13.075-2.123 5.1-7.977 7.511-13.075 5.39-16.419-6.834-30.85-17.282-42.395-30.597-6.936 9.743-15.704 18.11-25.877 24.621-15.026 9.616-32.439 14.699-50.356 14.699-51.571.001-93.527-41.959-93.527-93.535 0-24.359 9.318-47.426 26.238-64.948 13.439-13.919 30.531-23.173 49.173-26.822-3.521-9.5-5.347-19.6-5.347-29.806 0-47.308 38.488-85.796 85.796-85.796 11.724 0 23.125 2.347 33.691 6.874 3.677-33.408 32.073-59.485 66.444-59.485 32.248 0 59.311 23.051 65.513 53.538 3.37-.617 6.804-.927 10.283-.927 25.386 0 47.123 16.713 54.398 39.95 6.705-2.202 13.75-3.341 20.858-3.341 36.859 0 66.847 29.987 66.847 66.847 0 8.674-1.681 17.224-4.913 25.176 26.764 17.117 43.02 46.465 43.02 78.74-.001 51.576-41.961 93.536-93.538 93.536z"
                ></path>
            </g>
            <circle cx="256" cy="422.762" r="10"/>
        </g>    
    </g>
</svg>